<svg id="visual" viewBox="0 0 1980 1280" width="1980" height="1280" xmlns="http://www.w3.org/2000/svg" xmlns:xlink="http://www.w3.org/1999/xlink" version="1.1"><path d="M0 219L30 244.5C60 270 120 321 180 321C240 321 300 270 360 267.8C420 265.7 480 312.3 540 340C600 367.7 660 376.3 720 382.8C780 389.3 840 393.7 900 385.2C960 376.7 1020 355.3 1080 383C1140 410.7 1200 487.3 1260 491.5C1320 495.7 1380 427.3 1440 380.5C1500 333.7 1560 308.3 1620 319C1680 329.7 1740 376.3 1800 374.2C1860 372 1920 321 1950 295.5L1980 270L1980 0L1950 0C1920 0 1860 0 1800 0C1740 0 1680 0 1620 0C1560 0 1500 0 1440 0C1380 0 1320 0 1260 0C1200 0 1140 0 1080 0C1020 0 960 0 900 0C840 0 780 0 720 0C660 0 600 0 540 0C480 0 420 0 360 0C300 0 240 0 180 0C120 0 60 0 30 0L0 0Z" fill="#6198ff"></path><path d="M0 372L30 404C60 436 120 500 180 502.2C240 504.3 300 444.7 360 429.8C420 415 480 445 540 472.7C600 500.3 660 525.7 720 534.2C780 542.7 840 534.3 900 513C960 491.7 1020 457.3 1080 476.5C1140 495.7 1200 568.3 1260 577C1320 585.7 1380 530.3 1440 489.8C1500 449.3 1560 423.7 1620 427.8C1680 432 1740 466 1800 476.7C1860 487.3 1920 474.7 1950 468.3L1980 462L1980 268L1950 293.5C1920 319 1860 370 1800 372.2C1740 374.3 1680 327.7 1620 317C1560 306.3 1500 331.7 1440 378.5C1380 425.3 1320 493.7 1260 489.5C1200 485.3 1140 408.7 1080 381C1020 353.3 960 374.7 900 383.2C840 391.7 780 387.3 720 380.8C660 374.3 600 365.7 540 338C480 310.3 420 263.7 360 265.8C300 268 240 319 180 319C120 319 60 268 30 242.5L0 217Z" fill="#3c80ff"></path><path d="M0 782L30 786.2C60 790.3 120 798.7 180 800.8C240 803 300 799 360 807.7C420 816.3 480 837.7 540 854.7C600 871.7 660 884.3 720 873.7C780 863 840 829 900 839.7C960 850.3 1020 905.7 1080 914.2C1140 922.7 1200 884.3 1260 869.3C1320 854.3 1380 862.7 1440 837C1500 811.3 1560 751.7 1620 758.2C1680 764.7 1740 837.3 1800 860.8C1860 884.3 1920 858.7 1950 845.8L1980 833L1980 460L1950 466.3C1920 472.7 1860 485.3 1800 474.7C1740 464 1680 430 1620 425.8C1560 421.7 1500 447.3 1440 487.8C1380 528.3 1320 583.7 1260 575C1200 566.3 1140 493.7 1080 474.5C1020 455.3 960 489.7 900 511C840 532.3 780 540.7 720 532.2C660 523.7 600 498.3 540 470.7C480 443 420 413 360 427.8C300 442.7 240 502.3 180 500.2C120 498 60 434 30 402L0 370Z" fill="#0066ff"></path><path d="M0 1038L30 1035.8C60 1033.7 120 1029.3 180 1020.8C240 1012.3 300 999.7 360 1004C420 1008.3 480 1029.7 540 1053C600 1076.3 660 1101.7 720 1080.3C780 1059 840 991 900 984.7C960 978.3 1020 1033.7 1080 1065.7C1140 1097.7 1200 1106.3 1260 1100C1320 1093.7 1380 1072.3 1440 1046.7C1500 1021 1560 991 1620 1005.8C1680 1020.7 1740 1080.3 1800 1076C1860 1071.7 1920 1003.3 1950 969.2L1980 935L1980 831L1950 843.8C1920 856.7 1860 882.3 1800 858.8C1740 835.3 1680 762.7 1620 756.2C1560 749.7 1500 809.3 1440 835C1380 860.7 1320 852.3 1260 867.3C1200 882.3 1140 920.7 1080 912.2C1020 903.7 960 848.3 900 837.7C840 827 780 861 720 871.7C660 882.3 600 869.7 540 852.7C480 835.7 420 814.3 360 805.7C300 797 240 801 180 798.8C120 796.7 60 788.3 30 784.2L0 780Z" fill="#0059dd"></path><path d="M0 1281L30 1281C60 1281 120 1281 180 1281C240 1281 300 1281 360 1281C420 1281 480 1281 540 1281C600 1281 660 1281 720 1281C780 1281 840 1281 900 1281C960 1281 1020 1281 1080 1281C1140 1281 1200 1281 1260 1281C1320 1281 1380 1281 1440 1281C1500 1281 1560 1281 1620 1281C1680 1281 1740 1281 1800 1281C1860 1281 1920 1281 1950 1281L1980 1281L1980 933L1950 967.2C1920 1001.3 1860 1069.7 1800 1074C1740 1078.3 1680 1018.7 1620 1003.8C1560 989 1500 1019 1440 1044.7C1380 1070.3 1320 1091.7 1260 1098C1200 1104.3 1140 1095.7 1080 1063.7C1020 1031.7 960 976.3 900 982.7C840 989 780 1057 720 1078.3C660 1099.7 600 1074.3 540 1051C480 1027.7 420 1006.3 360 1002C300 997.7 240 1010.3 180 1018.8C120 1027.3 60 1031.7 30 1033.8L0 1036Z" fill="#004cbb"></path></svg>